# xmcd CD database file
#
# Track frame offsets:
#	150
#	19512
#	37161
#	53310
#	72910
#	102415
#	119433
#	142582
#	160013
#	180394
#	212754
#
# Disc length: 4440 seconds
#
# Revision: 0
# Processed by: cddbd v1.5.1PL0 Copyright (c) Steve Scherf et al.
# Submitted via: CDex 1.51
#
DISCID=8811560b
DTITLE=笠原弘子 - レコ
DYEAR=2002
DGENRE=JPop
TTITLE0=Let me wake you happy
TTITLE1=This might be a dream
TTITLE2=Did you see my e-mail?
TTITLE3=Where is the love?
TTITLE4=The Heaven
TTITLE5=LECO
TTITLE6=I'm glad to find you
TTITLE7=I can't go on without you
TTITLE8=Do you think I'm someone special to you?
TTITLE9=This is the real beginning
TTITLE10=cdexstra
EXTD=YEAR: 2002
EXTT0=
EXTT1=
EXTT2=
EXTT3=
EXTT4=
EXTT5=
EXTT6=
EXTT7=
EXTT8=
EXTT9=
EXTT10=
PLAYORDER=
